<?xml version="1.0" encoding="UTF-8"?>
<svg id="Layer_2" data-name="Layer 2" xmlns="http://www.w3.org/2000/svg" viewBox="0 0 1586.66 311.96">
  <defs>
    <style>
      .cls-1 {
        fill-rule: evenodd;
      }

      .cls-1, .cls-2 {
        fill: #fff;
        stroke-width: 0px;
      }
    </style>
  </defs>
  <g id="Layer_1-2" data-name="Layer 1">
    <g>
      <g>
        <g>
          <path class="cls-2" d="m429.65,159.31h-35.1v-31.91h105.31v31.91h-35.1v127.65h-35.1v-127.65Z"/>
          <path class="cls-2" d="m569.15,154.98l-6.38-27.58h64.74l32.14,159.56h-35.33l-5.7-31.91h-36.24l-5.93,31.91h-35.56l28.26-131.98Zm43.99,68.15l-11.17-63.82h-1.6l-12.08,63.82h24.84Z"/>
          <path class="cls-2" d="m727.33,280.8c-4.1-4.1-6.15-8.96-6.15-14.59v-118.07c0-5.77,2.05-10.67,6.15-14.7,4.1-4.02,8.96-6.04,14.59-6.04h57.44c5.77,0,10.67,2.02,14.7,6.04,4.02,4.03,6.04,8.93,6.04,14.7v31.91l-35.1,7.98v-28.72h-28.72v95.74h28.72v-28.72l35.1-7.98v47.87c0,5.62-2.02,10.49-6.04,14.59-4.03,4.1-8.93,6.15-14.7,6.15h-57.44c-5.62,0-10.49-2.05-14.59-6.15Z"/>
          <path class="cls-2" d="m919.03,159.31h-35.1v-31.91h105.31v31.91h-35.1v127.65h-35.1v-127.65Z"/>
          <path class="cls-2" d="m1053.06,127.4h35.1v159.56h-35.1V127.4Z"/>
          <path class="cls-2" d="m1162.7,280.8c-4.1-4.1-6.15-8.96-6.15-14.59v-118.07c0-5.77,2.05-10.67,6.15-14.7,4.1-4.02,8.96-6.04,14.59-6.04h57.44c5.77,0,10.67,2.02,14.7,6.04,4.02,4.03,6.04,8.93,6.04,14.7v31.91l-35.1,7.98v-28.72h-28.72v95.74h28.72v-28.72l35.1-7.98v47.87c0,5.62-2.02,10.49-6.04,14.59-4.03,4.1-8.93,6.15-14.7,6.15h-57.44c-5.62,0-10.49-2.05-14.59-6.15Z"/>
          <path class="cls-2" d="m1345.27,154.98l-6.38-27.58h64.73l32.14,159.56h-35.33l-5.7-31.91h-36.24l-5.93,31.91h-35.56l28.26-131.98Zm43.99,68.15l-11.17-63.82h-1.6l-12.08,63.82h24.85Z"/>
          <path class="cls-2" d="m1497.31,127.4h35.1v127.65h54.25v31.91h-89.35V127.4Z"/>
        </g>
        <g>
          <path class="cls-2" d="m576.37,25.01h17.11v62.21h26.44v15.55h-43.54V25.01Z"/>
          <path class="cls-2" d="m678.46,99.77c-2-2-3-4.37-3-7.11v-57.54c0-2.81,1-5.2,3-7.17,2-1.96,4.37-2.94,7.11-2.94h30.33c2.81,0,5.2.98,7.17,2.94,1.96,1.96,2.94,4.35,2.94,7.17v57.54c0,2.74-.98,5.11-2.94,7.11-1.96,2-4.35,3-7.17,3h-30.33c-2.74,0-5.11-1-7.11-3Zm30.44-12.55v-46.66h-16.33v46.66h16.33Z"/>
          <path class="cls-2" d="m784.54,99.77c-2-2-3-4.37-3-7.11V25.01h17.11v62.21h14.77V25.01h17.11v67.65c0,2.74-.98,5.11-2.94,7.11-1.96,2-4.35,3-7.17,3h-28.77c-2.74,0-5.11-1-7.11-3Z"/>
          <path class="cls-2" d="m886.07,25.01h17.11v77.76h-17.11V25.01Z"/>
          <path class="cls-2" d="m961.72,99.77c-2-2-3-4.37-3-7.11v-10.89l17.11-3.89v9.33h12.44v-13.22l-23.33-9.89c-1.85-.74-3.35-1.96-4.5-3.67-1.15-1.7-1.72-3.55-1.72-5.55v-19.77c0-2.81,1-5.2,3-7.17,2-1.96,4.37-2.94,7.11-2.94h26.44c2.81,0,5.2.98,7.17,2.94,1.96,1.96,2.94,4.35,2.94,7.17v10.89l-17.11,3.89v-9.33h-12.44v10.89l23.33,9.89c1.85.74,3.35,1.96,4.5,3.67,1.15,1.7,1.72,3.55,1.72,5.55v22.11c0,2.74-.98,5.11-2.94,7.11-1.96,2-4.35,3-7.17,3h-26.44c-2.74,0-5.11-1-7.11-3Z"/>
          <path class="cls-2" d="m1060.92,25.01h17.11v77.76h-17.11V25.01Z"/>
          <path class="cls-2" d="m1144.01,38.45l-3.11-13.44h31.55l15.66,77.76h-17.22l-2.78-15.55h-17.66l-2.89,15.55h-17.33l13.77-64.32Zm21.44,33.21l-5.44-31.1h-.78l-5.89,31.1h12.11Z"/>
          <path class="cls-2" d="m1240.32,25.01h18.66l18.66,44.32V25.01h17.11v77.76h-18.66l-18.66-44.32v44.32h-17.11V25.01Z"/>
          <path class="cls-2" d="m1360.73,38.45l-3.11-13.44h31.55l15.66,77.76h-17.22l-2.78-15.55h-17.66l-2.89,15.55h-17.33l13.77-64.32Zm21.44,33.21l-5.44-31.1h-.78l-5.89,31.1h12.11Z"/>
        </g>
      </g>
      <g>
        <path class="cls-1" d="m23.01,146.49c-2.58-8.66-8.81-15.8-16.85-19.74,4.1-20.65,12.15-39.77,23.53-56.63,11.39,3.95,24.29,1.36,33.4-7.59,8.96-9.11,11.54-22.17,7.74-33.4,16.69-11.39,35.98-19.59,56.62-23.54,3.8,8.05,10.93,14.27,19.59,16.85v9.11c-30.66,2.28-58.3,15.64-78.79,36.13-20.49,20.5-33.85,48.13-36.13,78.8h-9.11ZM165.86,22.46c8.66-2.58,15.64-8.8,19.59-16.85,20.64,3.95,39.93,12.15,56.62,23.54-3.8,11.23-1.37,24.29,7.74,33.4,8.96,8.95,22.01,11.54,33.4,7.59,11.39,16.85,19.43,35.98,23.38,56.63-7.89,3.94-14.12,11.08-16.7,19.74h-9.11c-2.27-30.67-15.63-58.3-36.13-78.8-20.49-20.49-48.12-33.85-78.79-36.13v-9.11Zm0,266.89c8.66,2.57,15.64,8.65,19.59,16.69,20.64-3.94,39.93-12.14,56.62-23.54-3.8-11.23-1.37-24.29,7.74-33.24,8.96-9.11,22.01-11.69,33.4-7.74,11.39-16.85,19.43-35.98,23.38-56.63-7.89-3.95-14.12-11.08-16.7-19.73h-9.11c-2.27,30.81-15.63,58.29-36.13,78.78-20.49,20.49-48.12,34.01-78.79,36.29v9.11ZM23.01,165.17c-2.58,8.65-8.81,15.78-16.85,19.73,4.1,20.65,12.15,39.77,23.53,56.63,11.39-3.95,24.29-1.37,33.4,7.74,8.96,8.96,11.54,22.01,7.74,33.24,16.69,11.39,35.98,19.59,56.62,23.54,3.8-8.04,10.93-14.12,19.59-16.69v-9.11c-30.66-2.28-58.3-15.79-78.79-36.29-20.49-20.49-33.85-47.97-36.13-78.78h-9.11Z"/>
        <path class="cls-1" d="m147.71,6.07h1.21v20.04l1.82,2.73v10.02l5.31,11.84,5.31-11.84v-10.02l1.82-2.73V6.07h1.21c1.06,0,1.82-.91,1.82-1.97V0h-20.34v4.1c0,1.06.76,1.97,1.82,1.97h0Z"/>
        <path class="cls-1" d="m306.05,147.71v1.21h-20.03l-2.89,1.83h-10.02l-11.69,5.31,11.69,5.31h10.02l2.89,1.82h20.03v1.06c0,1.07.91,1.98,1.82,1.98h4.25v-20.5h-4.25c-.91,0-1.82.92-1.82,1.97h0Z"/>
        <path class="cls-1" d="m164.41,306.04h-1.21v-20.18l-1.82-2.73v-10.02l-5.31-11.84-5.31,11.84v10.02l-1.82,2.73v20.18h-1.21c-1.06,0-1.82.77-1.82,1.83v4.09h20.34v-4.09c0-1.07-.76-1.83-1.82-1.83h0Z"/>
        <path class="cls-1" d="m6.07,164.41v-1.22h20.04l2.73-1.82h10.17l11.69-5.31-11.69-5.31h-10.17l-2.73-1.83H6.07v-1.21c0-1.06-.91-1.97-1.97-1.97H0v20.5h4.1c1.06,0,1.97-.91,1.97-1.82h0Z"/>
        <g>
          <path class="cls-2" d="m98.28,94.83l73.68.37s2.62,1.68,2.06,4.11c-.56,2.43-2.06,4.49-1.12,5.42.94.94,4.11,1.12,2.43,3.55-1.68,2.43-1.68,4.11-1.31,4.68.37.56,5.42,1.12,4.49,4.11-.94,2.99-2.43,9.72-4.11,10.66-1.68.94-5.42.75-6.36,3.74-.94,2.99.37,5.61-1.12,6.92-1.5,1.31-6.36,9.16-6.36,9.16v8.79h47.87s-2.06,6.92-1.5,8.6c.56,1.68,6.36,12.16,5.61,14.77-.75,2.62-6.73,4.49-5.98,5.8.75,1.31,5.24,4.3,5.24,4.3,0,0,4.11-5.24,4.3-4.11.19,1.12,2.43,5.98.94,7.67-1.5,1.68-5.8,1.87-6.36,3.37-.56,1.5,4.81,4.79,5.56,7.03.75,2.24,2.62,3.93,2.62,3.93l-19.77-6.85s2.06,9.35.56,10.29c-1.5.94-3.74.56-3.93-.93-.19-1.5-1.12-2.81-1.68-3.18-.56-.37-10.29-.56-10.29-.56,0,0-1.68,2.06-2.62,2.06s-3.18-3.18-3.93-2.99c-.75.19-2.62,3.93-2.62,3.93l-4.86-7.67-6.36-.56s-.19-8.23-2.99-7.85c-2.8.37-4.86,2.99-5.42,1.31-.56-1.68.37-4.3-1.12-3.93-1.5.37-8.23,1.31-7.11,2.43,1.12,1.12,1.87,3.93-.94,5.24-2.8,1.31-8.79.75-10.85,0-2.06-.75-11.22-6.73-15.33-6.17s-15.52,2.8-15.52,2.8c0,0,3.18-10.28,2.81-13.09-.37-2.8-2.06-5.61-.94-7.67,1.12-2.06,6.17-14.59,5.98-18.7-.19-4.11-5.61-14.03-5.98-16.27-.37-2.24-.19-6.73-.19-6.73l-7.29-6.55-.19-31.23Z"/>
          <path class="cls-2" d="m158.5,200.21c-.26-1.13-5.61-4.11-6.92-.94-1.31,3.18.3,4.24,3.55,3.93,3.93-.37,3.68-1.63,3.37-2.99Z"/>
        </g>
        <path class="cls-1" d="m211.1,263.7c11.36-5.75,21.67-13.33,30.61-22.27,8.93-8.94,16.36-19.24,22.11-30.45l1.52-2.88-2.58-.6c6.21-12.88,9.9-27.28,10.96-42.28h-8.78c-1.21,14.24-4.9,28.04-10.96,40.16l-2.58-.61-.91,1.67c-10,18.64-25.3,33.94-43.94,43.94l-1.66.91.61,2.57c-12.12,6.07-25.49,10.07-39.59,11.28v8.79c14.85-1.21,28.83-5.22,41.71-11.28l.61,2.57,2.87-1.52Z"/>
        <path class="cls-1" d="m211.1,48.72c11.36,5.76,21.67,13.33,30.61,22.27,8.93,8.94,16.36,19.24,22.11,30.45l1.52,2.88-2.58.61c6.21,12.87,10.12,26.58,11.17,41.59h-8.78c-1.21-14.25-5.12-27.2-11.17-39.32l-2.58.61-.91-1.82c-10-18.63-25.3-33.94-43.94-43.94l-1.66-.91.61-2.57c-12.12-6.06-25.49-10.08-39.59-11.3v-8.78c14.85,1.21,28.83,5.23,41.71,11.44l.61-2.57,2.87,1.36Z"/>
        <path class="cls-1" d="m48.99,101.44c5.61-11.21,13.18-21.51,22.12-30.45,8.94-8.94,19.25-16.51,30.45-22.27l2.88-1.36.61,2.57c12.88-6.21,27.12-10.15,41.97-11.36v8.78c-14.24,1.21-27.58,5.15-39.69,11.21l.61,2.57-1.82.91c-18.63,10-33.94,25.3-43.94,43.94l-.91,1.82-2.58-.61c-6.06,12.12-9.96,25.07-11.17,39.32h-8.79c1.22-15,5.11-28.71,11.33-41.59l-2.58-.61,1.51-2.88Z"/>
        <path class="cls-1" d="m48.99,210.98c5.61,11.21,13.18,21.51,22.12,30.45,8.94,8.94,19.25,16.52,30.45,22.27l2.88,1.52.61-2.57c12.88,6.06,27.12,10,41.97,11.21v-8.79c-14.24-1.21-27.58-5.14-39.69-11.21l.61-2.57-1.82-.91c-18.63-10-33.94-25.3-43.94-43.94l-.91-1.67-2.58.61c-6.06-12.12-9.96-25.92-11.17-40.16h-8.79c1.22,15,5.12,29.4,11.33,42.28l-2.58.6,1.51,2.88Z"/>
      </g>
    </g>
  </g>
</svg>